<svg width="386" height="138" viewBox="0 0 386 138" fill="none" xmlns="http://www.w3.org/2000/svg">
<rect y="38" width="266" height="100" fill="#5B6460"/>
<path d="M87.6782 91.508C87.6782 90.764 87.4862 90.122 87.1022 89.582C86.7182 89.042 86.1782 88.652 85.4822 88.412C86.1062 88.208 86.5922 87.848 86.9402 87.332C87.3002 86.804 87.4802 86.204 87.4802 85.532C87.4802 85.004 87.3842 84.536 87.1922 84.128C87.0122 83.708 86.7542 83.354 86.4182 83.066C86.0942 82.778 85.7042 82.562 85.2482 82.418C84.7922 82.262 84.3002 82.184 83.7722 82.184H79.0562V95H83.9162C84.4802 95 84.9902 94.928 85.4462 94.784C85.9142 94.628 86.3102 94.406 86.6342 94.118C86.9702 93.818 87.2282 93.452 87.4082 93.02C87.5882 92.588 87.6782 92.084 87.6782 91.508ZM86.5082 85.532C86.5082 85.976 86.4302 86.354 86.2742 86.666C86.1302 86.978 85.9262 87.236 85.6622 87.44C85.4102 87.632 85.1102 87.776 84.7622 87.872C84.4142 87.968 84.0482 88.016 83.6642 88.016H80.0282V83.048H83.6642C84.0482 83.048 84.4142 83.096 84.7622 83.192C85.1102 83.288 85.4102 83.438 85.6622 83.642C85.9262 83.834 86.1302 84.086 86.2742 84.398C86.4302 84.71 86.5082 85.088 86.5082 85.532ZM86.7062 91.508C86.7062 92.336 86.4422 92.984 85.9142 93.452C85.3862 93.908 84.6842 94.136 83.8082 94.136H80.0282V88.88H83.8082C84.6842 88.88 85.3862 89.114 85.9142 89.582C86.4422 90.038 86.7062 90.68 86.7062 91.508ZM100.412 88.592C100.412 87.872 100.406 87.254 100.394 86.738C100.382 86.21 100.334 85.748 100.25 85.352C100.178 84.956 100.058 84.602 99.8903 84.29C99.7343 83.978 99.5123 83.678 99.2243 83.39C98.8043 82.97 98.3183 82.646 97.7663 82.418C97.2143 82.19 96.6323 82.076 96.0203 82.076C95.4083 82.076 94.8263 82.19 94.2743 82.418C93.7223 82.646 93.2363 82.97 92.8163 83.39C92.5283 83.678 92.3003 83.978 92.1323 84.29C91.9763 84.602 91.8563 84.956 91.7723 85.352C91.7003 85.748 91.6583 86.21 91.6463 86.738C91.6343 87.254 91.6283 87.872 91.6283 88.592C91.6283 89.312 91.6343 89.936 91.6463 90.464C91.6583 90.992 91.7003 91.454 91.7723 91.85C91.8563 92.246 91.9763 92.6 92.1323 92.912C92.3003 93.212 92.5283 93.506 92.8163 93.794C93.2363 94.214 93.7223 94.538 94.2743 94.766C94.8263 94.994 95.4083 95.108 96.0203 95.108C96.6323 95.108 97.2143 94.994 97.7663 94.766C98.3183 94.538 98.8043 94.214 99.2243 93.794C99.5123 93.506 99.7343 93.212 99.8903 92.912C100.058 92.6 100.178 92.246 100.25 91.85C100.334 91.454 100.382 90.992 100.394 90.464C100.406 89.936 100.412 89.312 100.412 88.592ZM99.4403 88.592C99.4403 89.276 99.4283 89.864 99.4043 90.356C99.3923 90.836 99.3503 91.256 99.2783 91.616C99.2183 91.964 99.1223 92.27 98.9903 92.534C98.8583 92.786 98.6783 93.026 98.4503 93.254C98.1263 93.578 97.7543 93.824 97.3343 93.992C96.9143 94.16 96.4763 94.244 96.0203 94.244C95.5643 94.244 95.1263 94.16 94.7063 93.992C94.2863 93.824 93.9143 93.578 93.5903 93.254C93.3623 93.026 93.1823 92.786 93.0503 92.534C92.9183 92.27 92.8163 91.964 92.7443 91.616C92.6843 91.256 92.6423 90.836 92.6183 90.356C92.6063 89.864 92.6003 89.276 92.6003 88.592C92.6003 87.908 92.6063 87.326 92.6183 86.846C92.6423 86.354 92.6843 85.934 92.7443 85.586C92.8163 85.226 92.9183 84.92 93.0503 84.668C93.1823 84.404 93.3623 84.158 93.5903 83.93C93.9143 83.606 94.2863 83.36 94.7063 83.192C95.1263 83.024 95.5643 82.94 96.0203 82.94C96.4763 82.94 96.9143 83.024 97.3343 83.192C97.7543 83.36 98.1263 83.606 98.4503 83.93C98.6783 84.158 98.8583 84.404 98.9903 84.668C99.1223 84.92 99.2183 85.226 99.2783 85.586C99.3503 85.934 99.3923 86.354 99.4043 86.846C99.4283 87.326 99.4403 87.908 99.4403 88.592ZM113.155 88.592C113.155 87.872 113.149 87.254 113.137 86.738C113.125 86.21 113.077 85.748 112.993 85.352C112.921 84.956 112.801 84.602 112.633 84.29C112.477 83.978 112.255 83.678 111.967 83.39C111.547 82.97 111.061 82.646 110.509 82.418C109.957 82.19 109.375 82.076 108.763 82.076C108.151 82.076 107.569 82.19 107.017 82.418C106.465 82.646 105.979 82.97 105.559 83.39C105.271 83.678 105.043 83.978 104.875 84.29C104.719 84.602 104.599 84.956 104.515 85.352C104.443 85.748 104.401 86.21 104.389 86.738C104.377 87.254 104.371 87.872 104.371 88.592C104.371 89.312 104.377 89.936 104.389 90.464C104.401 90.992 104.443 91.454 104.515 91.85C104.599 92.246 104.719 92.6 104.875 92.912C105.043 93.212 105.271 93.506 105.559 93.794C105.979 94.214 106.465 94.538 107.017 94.766C107.569 94.994 108.151 95.108 108.763 95.108C109.375 95.108 109.957 94.994 110.509 94.766C111.061 94.538 111.547 94.214 111.967 93.794C112.255 93.506 112.477 93.212 112.633 92.912C112.801 92.6 112.921 92.246 112.993 91.85C113.077 91.454 113.125 90.992 113.137 90.464C113.149 89.936 113.155 89.312 113.155 88.592ZM112.183 88.592C112.183 89.276 112.171 89.864 112.147 90.356C112.135 90.836 112.093 91.256 112.021 91.616C111.961 91.964 111.865 92.27 111.733 92.534C111.601 92.786 111.421 93.026 111.193 93.254C110.869 93.578 110.497 93.824 110.077 93.992C109.657 94.16 109.219 94.244 108.763 94.244C108.307 94.244 107.869 94.16 107.449 93.992C107.029 93.824 106.657 93.578 106.333 93.254C106.105 93.026 105.925 92.786 105.793 92.534C105.661 92.27 105.559 91.964 105.487 91.616C105.427 91.256 105.385 90.836 105.361 90.356C105.349 89.864 105.343 89.276 105.343 88.592C105.343 87.908 105.349 87.326 105.361 86.846C105.385 86.354 105.427 85.934 105.487 85.586C105.559 85.226 105.661 84.92 105.793 84.668C105.925 84.404 106.105 84.158 106.333 83.93C106.657 83.606 107.029 83.36 107.449 83.192C107.869 83.024 108.307 82.94 108.763 82.94C109.219 82.94 109.657 83.024 110.077 83.192C110.497 83.36 110.869 83.606 111.193 83.93C111.421 84.158 111.601 84.404 111.733 84.668C111.865 84.92 111.961 85.226 112.021 85.586C112.093 85.934 112.135 86.354 112.147 86.846C112.171 87.326 112.183 87.908 112.183 88.592ZM126.923 95L122.297 87.08L126.257 82.184H125.087L118.589 90.194V82.184H117.617V95H118.589V91.526L121.649 87.818L125.771 95H126.923ZM144.392 95L139.676 82.184H138.812L134.096 95H135.14L136.256 91.886H142.232L143.348 95H144.392ZM141.926 91.022H136.562L139.244 83.48L141.926 91.022ZM161.844 95V82.184H160.872V88.106H154.194V82.184H153.222V95H154.194V88.97H160.872V95H161.844ZM175.412 90.842V82.184H174.44V90.716C174.44 91.244 174.356 91.73 174.188 92.174C174.032 92.606 173.804 92.978 173.504 93.29C173.204 93.59 172.844 93.824 172.424 93.992C172.004 94.16 171.536 94.244 171.02 94.244C170.504 94.244 170.036 94.16 169.616 93.992C169.196 93.824 168.836 93.59 168.536 93.29C168.236 92.978 168.002 92.606 167.834 92.174C167.678 91.73 167.6 91.244 167.6 90.716V82.184H166.628V90.842C166.628 91.466 166.736 92.042 166.952 92.57C167.168 93.086 167.468 93.536 167.852 93.92C168.248 94.292 168.71 94.586 169.238 94.802C169.778 95.006 170.372 95.108 171.02 95.108C171.668 95.108 172.256 95.006 172.784 94.802C173.324 94.586 173.786 94.292 174.17 93.92C174.566 93.536 174.872 93.086 175.088 92.57C175.304 92.042 175.412 91.466 175.412 90.842ZM187.383 83.048V82.184H178.761V83.048H182.577V95H183.549V83.048H187.383Z" fill="white"/>
<rect x="266" y="38" width="120" height="100" fill="#E9ECE0"/>
<path d="M312.652 109.108C312.652 108.652 312.6 108.204 312.496 107.764C312.4 107.316 312.204 106.944 311.908 106.648C311.756 106.496 311.556 106.376 311.308 106.288C311.068 106.192 310.796 106.144 310.492 106.144C310.164 106.144 309.86 106.196 309.58 106.3C309.3 106.404 309.032 106.624 308.776 106.96V106.216H308.164V114.76H308.776V111.256C309.032 111.592 309.3 111.812 309.58 111.916C309.86 112.02 310.164 112.072 310.492 112.072C310.796 112.072 311.068 112.028 311.308 111.94C311.556 111.844 311.756 111.72 311.908 111.568C312.204 111.272 312.4 110.904 312.496 110.464C312.6 110.016 312.652 109.564 312.652 109.108ZM312.04 109.108C312.04 109.412 312.02 109.708 311.98 109.996C311.948 110.284 311.872 110.544 311.752 110.776C311.64 111 311.476 111.184 311.26 111.328C311.044 111.464 310.76 111.532 310.408 111.532C310.056 111.532 309.772 111.464 309.556 111.328C309.34 111.184 309.172 111 309.052 110.776C308.94 110.544 308.864 110.284 308.824 109.996C308.792 109.708 308.776 109.412 308.776 109.108C308.776 108.812 308.792 108.52 308.824 108.232C308.864 107.936 308.94 107.676 309.052 107.452C309.172 107.22 309.34 107.036 309.556 106.9C309.772 106.756 310.056 106.684 310.408 106.684C310.76 106.684 311.044 106.756 311.26 106.9C311.476 107.036 311.64 107.22 311.752 107.452C311.872 107.676 311.948 107.936 311.98 108.232C312.02 108.52 312.04 108.812 312.04 109.108ZM318.94 109.24V108.964C318.94 108.076 318.736 107.384 318.328 106.888C317.92 106.392 317.352 106.144 316.624 106.144C315.896 106.144 315.328 106.404 314.92 106.924C314.512 107.444 314.308 108.172 314.308 109.108C314.308 110.076 314.516 110.812 314.932 111.316C315.356 111.82 315.968 112.072 316.768 112.072C317.008 112.072 317.224 112.052 317.416 112.012C317.608 111.98 317.784 111.928 317.944 111.856C318.112 111.776 318.268 111.68 318.412 111.568C318.564 111.456 318.712 111.328 318.856 111.184L318.4 110.824C318.152 111.072 317.908 111.252 317.668 111.364C317.436 111.468 317.148 111.52 316.804 111.52C316.188 111.52 315.72 111.324 315.4 110.932C315.08 110.54 314.92 109.976 314.92 109.24H318.94ZM318.328 108.748H314.92C314.928 108.612 314.936 108.496 314.944 108.4C314.952 108.296 314.964 108.208 314.98 108.136C314.996 108.056 315.012 107.98 315.028 107.908C315.052 107.828 315.084 107.744 315.124 107.656C315.252 107.352 315.448 107.116 315.712 106.948C315.984 106.772 316.288 106.684 316.624 106.684C316.96 106.684 317.26 106.772 317.524 106.948C317.796 107.116 317.996 107.352 318.124 107.656C318.156 107.744 318.184 107.828 318.208 107.908C318.232 107.98 318.252 108.056 318.268 108.136C318.284 108.208 318.296 108.296 318.304 108.4C318.312 108.496 318.32 108.612 318.328 108.748ZM324.622 106.696C324.414 106.488 324.198 106.344 323.974 106.264C323.758 106.184 323.51 106.144 323.23 106.144C322.886 106.144 322.558 106.216 322.246 106.36C321.942 106.504 321.706 106.712 321.538 106.984V106.216H320.926V112H321.538V108.436C321.538 108.204 321.57 107.984 321.634 107.776C321.706 107.56 321.806 107.372 321.934 107.212C322.07 107.052 322.234 106.924 322.426 106.828C322.618 106.732 322.838 106.684 323.086 106.684C323.326 106.684 323.522 106.716 323.674 106.78C323.834 106.844 324.002 106.964 324.178 107.14L324.622 106.696ZM333.346 112V108.304C333.346 107.616 333.146 107.08 332.746 106.696C332.362 106.328 331.85 106.144 331.21 106.144C330.506 106.144 329.938 106.396 329.506 106.9V106.216H328.894V112H329.506V108.412C329.506 107.86 329.646 107.436 329.926 107.14C330.214 106.836 330.618 106.684 331.138 106.684C331.658 106.684 332.054 106.832 332.326 107.128C332.598 107.424 332.734 107.852 332.734 108.412V112H333.346ZM336.282 104.212V103.456H335.526V104.212H336.282ZM336.21 112V106.216H335.598V112H336.21ZM342.691 112.324V106.216H342.079V106.96C341.823 106.624 341.555 106.404 341.275 106.3C340.995 106.196 340.691 106.144 340.363 106.144C340.059 106.144 339.783 106.192 339.535 106.288C339.295 106.376 339.099 106.496 338.947 106.648C338.651 106.944 338.451 107.316 338.347 107.764C338.251 108.204 338.203 108.652 338.203 109.108C338.203 109.564 338.251 110.016 338.347 110.464C338.451 110.904 338.651 111.272 338.947 111.568C339.099 111.72 339.295 111.844 339.535 111.94C339.783 112.028 340.059 112.072 340.363 112.072C340.691 112.072 340.995 112.02 341.275 111.916C341.555 111.812 341.823 111.592 342.079 111.256V112.288C342.079 112.576 342.043 112.84 341.971 113.08C341.907 113.328 341.803 113.54 341.659 113.716C341.515 113.9 341.331 114.04 341.107 114.136C340.891 114.24 340.631 114.292 340.327 114.292C340.143 114.292 339.983 114.276 339.847 114.244C339.711 114.22 339.587 114.18 339.475 114.124C339.363 114.076 339.255 114.012 339.151 113.932C339.047 113.852 338.939 113.76 338.827 113.656L338.419 114.064C338.571 114.2 338.715 114.316 338.851 114.412C338.987 114.508 339.127 114.588 339.271 114.652C339.423 114.716 339.583 114.76 339.751 114.784C339.919 114.816 340.111 114.832 340.327 114.832C340.703 114.832 341.035 114.768 341.323 114.64C341.619 114.52 341.867 114.348 342.067 114.124C342.275 113.9 342.431 113.632 342.535 113.32C342.639 113.016 342.691 112.684 342.691 112.324ZM342.079 109.108C342.079 109.412 342.059 109.708 342.019 109.996C341.987 110.284 341.911 110.544 341.791 110.776C341.679 111 341.515 111.184 341.299 111.328C341.083 111.464 340.799 111.532 340.447 111.532C340.095 111.532 339.811 111.464 339.595 111.328C339.379 111.184 339.211 111 339.091 110.776C338.979 110.544 338.903 110.284 338.863 109.996C338.831 109.708 338.815 109.412 338.815 109.108C338.815 108.812 338.831 108.52 338.863 108.232C338.903 107.936 338.979 107.676 339.091 107.452C339.211 107.22 339.379 107.036 339.595 106.9C339.811 106.756 340.095 106.684 340.447 106.684C340.799 106.684 341.083 106.756 341.299 106.9C341.515 107.036 341.679 107.22 341.791 107.452C341.911 107.676 341.987 107.936 342.019 108.232C342.059 108.52 342.079 108.812 342.079 109.108ZM349.471 112V108.304C349.471 107.632 349.279 107.104 348.895 106.72C348.519 106.336 347.999 106.144 347.335 106.144C346.631 106.144 346.063 106.396 345.631 106.9V103.456H345.019V112H345.631V108.412C345.631 107.86 345.771 107.436 346.051 107.14C346.339 106.836 346.743 106.684 347.263 106.684C347.783 106.684 348.179 106.832 348.451 107.128C348.723 107.424 348.859 107.852 348.859 108.412V112H349.471ZM353.787 112V111.46H353.367C353.063 111.46 352.839 111.376 352.695 111.208C352.551 111.04 352.479 110.804 352.479 110.5V106.672H353.787V106.216H352.479V104.368H351.867V106.216H351.075V106.672H351.867V110.488C351.867 110.928 351.983 111.292 352.215 111.58C352.455 111.86 352.803 112 353.259 112H353.787Z" fill="#333333"/>
<path d="M298.264 68.672V68.216H296.956V66.956C296.956 66.652 297.028 66.416 297.172 66.248C297.316 66.08 297.54 65.996 297.844 65.996H298.264V65.456H297.736C297.28 65.456 296.932 65.6 296.692 65.888C296.46 66.168 296.344 66.528 296.344 66.968V68.216H295.552V68.672H296.344V74H296.956V68.672H298.264ZM303.505 68.696C303.297 68.488 303.081 68.344 302.857 68.264C302.641 68.184 302.393 68.144 302.113 68.144C301.769 68.144 301.441 68.216 301.129 68.36C300.825 68.504 300.589 68.712 300.421 68.984V68.216H299.809V74H300.421V70.436C300.421 70.204 300.453 69.984 300.517 69.776C300.589 69.56 300.689 69.372 300.817 69.212C300.953 69.052 301.117 68.924 301.309 68.828C301.501 68.732 301.721 68.684 301.969 68.684C302.209 68.684 302.405 68.716 302.557 68.78C302.717 68.844 302.885 68.964 303.061 69.14L303.505 68.696ZM308.617 71.108C308.617 70.692 308.573 70.276 308.485 69.86C308.397 69.444 308.201 69.084 307.897 68.78C307.689 68.572 307.449 68.416 307.177 68.312C306.913 68.2 306.617 68.144 306.289 68.144C305.641 68.144 305.105 68.356 304.681 68.78C304.377 69.084 304.181 69.444 304.093 69.86C304.005 70.276 303.961 70.692 303.961 71.108C303.961 71.524 304.005 71.94 304.093 72.356C304.181 72.772 304.377 73.132 304.681 73.436C305.105 73.86 305.641 74.072 306.289 74.072C306.617 74.072 306.913 74.02 307.177 73.916C307.449 73.804 307.689 73.644 307.897 73.436C308.201 73.132 308.397 72.772 308.485 72.356C308.573 71.94 308.617 71.524 308.617 71.108ZM308.005 71.108C308.005 71.276 308.001 71.448 307.993 71.624C307.985 71.8 307.961 71.976 307.921 72.152C307.889 72.32 307.837 72.48 307.765 72.632C307.701 72.784 307.609 72.92 307.489 73.04C307.329 73.2 307.145 73.324 306.937 73.412C306.737 73.492 306.521 73.532 306.289 73.532C305.817 73.532 305.417 73.368 305.089 73.04C304.969 72.92 304.873 72.784 304.801 72.632C304.737 72.48 304.685 72.32 304.645 72.152C304.613 71.976 304.593 71.8 304.585 71.624C304.577 71.448 304.573 71.276 304.573 71.108C304.573 70.94 304.577 70.768 304.585 70.592C304.593 70.416 304.613 70.244 304.645 70.076C304.685 69.9 304.737 69.736 304.801 69.584C304.873 69.432 304.969 69.296 305.089 69.176C305.417 68.848 305.817 68.684 306.289 68.684C306.521 68.684 306.737 68.728 306.937 68.816C307.145 68.896 307.329 69.016 307.489 69.176C307.609 69.296 307.701 69.432 307.765 69.584C307.837 69.736 307.889 69.9 307.921 70.076C307.961 70.244 307.985 70.416 307.993 70.592C308.001 70.768 308.005 70.94 308.005 71.108ZM318.893 74V70.304C318.893 69.616 318.693 69.08 318.293 68.696C318.109 68.52 317.889 68.384 317.633 68.288C317.377 68.192 317.089 68.144 316.769 68.144C316.337 68.144 315.953 68.236 315.617 68.42C315.289 68.596 315.017 68.856 314.801 69.2C314.625 68.856 314.377 68.596 314.057 68.42C313.745 68.236 313.373 68.144 312.941 68.144C312.229 68.144 311.657 68.396 311.225 68.9V68.216H310.613V74H311.225V70.412C311.225 69.86 311.365 69.436 311.645 69.14C311.933 68.836 312.337 68.684 312.857 68.684C313.377 68.684 313.773 68.832 314.045 69.128C314.317 69.424 314.453 69.852 314.453 70.412V74H315.065V70.304C315.065 69.808 315.209 69.416 315.497 69.128C315.793 68.832 316.193 68.684 316.697 68.684C317.217 68.684 317.613 68.832 317.885 69.128C318.157 69.424 318.293 69.852 318.293 70.412V74H318.893Z" fill="#333333"/>
<path d="M302.368 81.3192C303.035 81.3192 303.661 81.3925 304.248 81.5392C304.835 81.6858 305.401 81.9192 305.948 82.2392L305.208 83.6792C304.835 83.4792 304.395 83.2925 303.888 83.1192C303.395 82.9458 302.888 82.8592 302.368 82.8592C300.341 82.8592 299.081 84.1325 298.588 86.6792H303.468V87.9792H298.448C298.435 88.1125 298.428 88.2392 298.428 88.3592C298.428 88.4792 298.428 88.6058 298.428 88.7392C298.428 88.8592 298.428 88.9925 298.428 89.1392C298.428 89.2725 298.435 89.4125 298.448 89.5592H302.868V90.8592H298.608C298.835 91.9925 299.268 92.8725 299.908 93.4992C300.561 94.1125 301.435 94.4192 302.528 94.4192C303.048 94.4192 303.568 94.3592 304.088 94.2392C304.621 94.1058 305.095 93.9525 305.508 93.7792V95.3392C305.095 95.5125 304.635 95.6592 304.128 95.7792C303.635 95.9125 303.068 95.9792 302.428 95.9792C300.815 95.9792 299.548 95.5192 298.628 94.5992C297.721 93.6792 297.121 92.4325 296.828 90.8592H295.228V89.5592H296.668C296.655 89.3992 296.648 89.2658 296.648 89.1592C296.648 89.0525 296.648 88.9125 296.648 88.7392C296.648 88.5925 296.648 88.4525 296.648 88.3192C296.661 88.1725 296.668 88.0592 296.668 87.9792H295.228V86.6792H296.808C297.061 85.0392 297.655 83.7392 298.588 82.7792C299.521 81.8058 300.781 81.3192 302.368 81.3192ZM315.773 91.7792C315.773 90.8992 315.593 90.1858 315.233 89.6392C314.873 89.0925 314.387 88.6858 313.773 88.4192C314.333 88.1525 314.767 87.7725 315.073 87.2792C315.393 86.7725 315.553 86.1392 315.553 85.3792C315.553 84.7925 315.447 84.2592 315.233 83.7792C315.033 83.2858 314.747 82.8658 314.373 82.5192C314.013 82.1592 313.58 81.8858 313.073 81.6992C312.567 81.4992 312.013 81.3992 311.413 81.3992C310.84 81.3992 310.307 81.4925 309.813 81.6792C309.32 81.8525 308.887 82.1058 308.513 82.4392C308.14 82.7725 307.84 83.1792 307.613 83.6592C307.387 84.1392 307.26 84.6792 307.233 85.2792H309.273C309.327 84.6392 309.54 84.1392 309.913 83.7792C310.287 83.4192 310.787 83.2392 311.413 83.2392C312 83.2392 312.493 83.4258 312.893 83.7992C313.307 84.1725 313.513 84.7192 313.513 85.4392C313.513 86.0925 313.34 86.6192 312.993 87.0192C312.647 87.4058 312.1 87.5992 311.353 87.5992H311.013V89.3792H311.353C312.153 89.3792 312.747 89.5925 313.133 90.0192C313.533 90.4325 313.733 90.9992 313.733 91.7192C313.733 92.4792 313.513 93.0658 313.073 93.4792C312.633 93.8792 312.08 94.0792 311.413 94.0792C311.12 94.0792 310.833 94.0392 310.553 93.9592C310.287 93.8792 310.047 93.7525 309.833 93.5792C309.633 93.3925 309.46 93.1658 309.313 92.8992C309.18 92.6325 309.107 92.3058 309.093 91.9192H307.053C307.067 92.6125 307.193 93.2125 307.433 93.7192C307.687 94.2258 308.013 94.6458 308.413 94.9792C308.813 95.2992 309.267 95.5392 309.773 95.6992C310.293 95.8458 310.84 95.9192 311.413 95.9192C312.013 95.9192 312.573 95.8325 313.093 95.6592C313.627 95.4858 314.087 95.2258 314.473 94.8792C314.873 94.5325 315.187 94.0992 315.413 93.5792C315.653 93.0592 315.773 92.4592 315.773 91.7792ZM320.877 95.7792V93.3392H318.437V95.7792H320.877ZM331.984 95.7792V93.9592H326.184L330.644 88.4992C331.084 87.9658 331.417 87.4792 331.644 87.0392C331.87 86.5858 331.984 86.0458 331.984 85.4192C331.984 84.8058 331.884 84.2525 331.684 83.7592C331.484 83.2658 331.204 82.8458 330.844 82.4992C330.484 82.1525 330.05 81.8858 329.544 81.6992C329.037 81.5125 328.477 81.4192 327.864 81.4192C327.264 81.4192 326.71 81.5192 326.204 81.7192C325.697 81.9058 325.257 82.1725 324.884 82.5192C324.524 82.8658 324.237 83.2925 324.024 83.7992C323.824 84.2925 323.724 84.8392 323.724 85.4392H325.764C325.764 85.0392 325.824 84.6992 325.944 84.4192C326.064 84.1392 326.217 83.9125 326.404 83.7392C326.604 83.5658 326.83 83.4392 327.084 83.3592C327.337 83.2792 327.597 83.2392 327.864 83.2392C328.53 83.2392 329.044 83.4392 329.404 83.8392C329.764 84.2392 329.944 84.7592 329.944 85.3992C329.944 85.7592 329.884 86.0858 329.764 86.3792C329.644 86.6592 329.45 86.9658 329.184 87.2992L323.704 93.9592V95.7792H331.984ZM342.548 91.8192V85.4992C342.548 84.8592 342.435 84.2925 342.208 83.7992C341.995 83.2925 341.701 82.8658 341.328 82.5192C340.955 82.1592 340.515 81.8858 340.008 81.6992C339.515 81.5125 338.988 81.4192 338.428 81.4192C337.868 81.4192 337.335 81.5125 336.828 81.6992C336.335 81.8858 335.901 82.1592 335.528 82.5192C335.155 82.8658 334.861 83.2925 334.648 83.7992C334.435 84.2925 334.328 84.8592 334.328 85.4992V91.8192C334.328 92.4592 334.435 93.0325 334.648 93.5392C334.861 94.0325 335.155 94.4592 335.528 94.8192C335.901 95.1658 336.335 95.4325 336.828 95.6192C337.335 95.8058 337.868 95.8992 338.428 95.8992C338.988 95.8992 339.515 95.8058 340.008 95.6192C340.515 95.4325 340.955 95.1658 341.328 94.8192C341.701 94.4592 341.995 94.0325 342.208 93.5392C342.435 93.0325 342.548 92.4592 342.548 91.8192ZM340.508 91.7592C340.508 92.4525 340.321 93.0125 339.948 93.4392C339.588 93.8658 339.081 94.0792 338.428 94.0792C337.775 94.0792 337.268 93.8658 336.908 93.4392C336.548 93.0125 336.368 92.4525 336.368 91.7592V85.5592C336.368 84.8658 336.548 84.3058 336.908 83.8792C337.268 83.4525 337.775 83.2392 338.428 83.2392C339.081 83.2392 339.588 83.4525 339.948 83.8792C340.321 84.3058 340.508 84.8658 340.508 85.5592V91.7592ZM353.212 91.8192V85.4992C353.212 84.8592 353.099 84.2925 352.872 83.7992C352.659 83.2925 352.365 82.8658 351.992 82.5192C351.619 82.1592 351.179 81.8858 350.672 81.6992C350.179 81.5125 349.652 81.4192 349.092 81.4192C348.532 81.4192 347.999 81.5125 347.492 81.6992C346.999 81.8858 346.565 82.1592 346.192 82.5192C345.819 82.8658 345.525 83.2925 345.312 83.7992C345.099 84.2925 344.992 84.8592 344.992 85.4992V91.8192C344.992 92.4592 345.099 93.0325 345.312 93.5392C345.525 94.0325 345.819 94.4592 346.192 94.8192C346.565 95.1658 346.999 95.4325 347.492 95.6192C347.999 95.8058 348.532 95.8992 349.092 95.8992C349.652 95.8992 350.179 95.8058 350.672 95.6192C351.179 95.4325 351.619 95.1658 351.992 94.8192C352.365 94.4592 352.659 94.0325 352.872 93.5392C353.099 93.0325 353.212 92.4592 353.212 91.8192ZM351.172 91.7592C351.172 92.4525 350.985 93.0125 350.612 93.4392C350.252 93.8658 349.745 94.0792 349.092 94.0792C348.439 94.0792 347.932 93.8658 347.572 93.4392C347.212 93.0125 347.032 92.4525 347.032 91.7592V85.5592C347.032 84.8658 347.212 84.3058 347.572 83.8792C347.932 83.4525 348.439 83.2392 349.092 83.2392C349.745 83.2392 350.252 83.4525 350.612 83.8792C350.985 84.3058 351.172 84.8658 351.172 85.5592V91.7592Z" fill="#333333"/>
</svg>
